<svg width="100%" height="100%" xmlns="http://www.w3.org/2000/svg"> <rect width="100%" height="100%" rx="4" fill="#EFF0F1"/> <g transform="translate(-16, -16)"> <svg width="32" height="32" viewBox="0 0 32 32" x="50%" y="50%"> <path d="M5.4072 5.54976C5.58128 5.37555 5.78797 5.23734 6.01547 5.14301C6.24297 5.04868 6.48682 5.00009 6.73309 5C6.97937 4.99991 7.22325 5.04833 7.45082 5.1425C7.67838 5.23666 7.88517 5.37473 8.05938 5.54881C8.23358 5.72289 8.3718 5.92958 8.46612 6.15707C8.56045 6.38457 8.60905 6.62842 8.60913 6.8747C8.60922 7.12097 8.5608 7.36486 8.46664 7.59242C8.37247 7.81998 8.23441 8.02677 8.06033 8.20098C7.00849 9.25096 6.17454 10.4985 5.60644 11.8718C5.03834 13.2452 4.74728 14.7173 4.75 16.2035C4.75 22.4445 9.78811 27.5004 16 27.5004C22.2119 27.5004 27.25 22.4445 27.25 16.2035C27.25 15.7062 27.4475 15.2293 27.7992 14.8777C28.1508 14.526 28.6277 14.3285 29.125 14.3285C29.6223 14.3285 30.0992 14.526 30.4508 14.8777C30.8025 15.2293 31 15.7062 31 16.2035C31 24.5126 24.2856 31.2504 16 31.2504C7.71437 31.2504 1 24.5126 1 16.2035C1 12.1535 2.60499 8.3538 5.4072 5.54976V5.54976Z" fill="#3370FF"> <animateTransform attributeType="xml" attributeName="transform" type="rotate" from="0 16 16" to="360 16 16" dur="1s" repeatCount="indefinite"/> </path> </svg> </g> </svg>